REM MD5 f2838b3f8c1f8585295e6603b0cb58fe
FILE "Wing Over 2 (Europe).bin" BINARY
  TRACK 01 MODE2/2352
    INDEX 01 00:00:00
  TRACK 02 AUDIO
    INDEX 00 05:57:30
    INDEX 01 05:59:30
  TRACK 03 AUDIO
    INDEX 00 06:31:45
    INDEX 01 06:33:45
  TRACK 04 AUDIO
    INDEX 00 10:09:74
    INDEX 01 10:11:74
REM LEADOUT 13:40:73
